<?xml version="1.0" encoding="UTF-8" ?>
<!DOCTYPE svg PUBLIC "-//W3C//DTD SVG 1.1//EN" "http://www.w3.org/Graphics/SVG/1.1/DTD/svg11.dtd">
<svg width="632pt" height="249pt" viewBox="0 0 632 249" version="1.1" xmlns="http://www.w3.org/2000/svg">
<g id="#ffffffff">
<path fill="#ffffff" opacity="1.00" d=" M 0.00 0.00 L 0.33 0.00 C 0.25 0.08 0.08 0.25 0.00 0.34 L 0.00 0.00 Z" />
<path fill="#ffffff" opacity="1.00" d=" M 523.64 55.34 C 530.75 40.38 538.11 25.53 545.18 10.55 C 574.18 70.40 602.82 130.43 632.00 190.20 L 632.00 190.49 C 563.05 190.58 494.09 190.55 425.13 190.51 C 413.96 190.36 402.79 190.39 391.62 190.48 C 380.07 190.60 368.52 190.54 356.97 190.52 C 354.75 190.56 352.40 190.26 350.36 191.33 C 332.43 199.49 311.24 200.11 292.80 193.25 C 289.88 192.28 287.16 190.34 283.97 190.53 C 271.64 190.53 259.32 190.58 246.99 190.51 C 235.79 190.36 224.59 190.39 213.39 190.50 C 179.17 190.59 144.94 190.52 110.72 190.54 C 102.92 206.68 95.33 222.92 87.45 239.02 C 58.25 178.90 29.22 118.70 0.06 58.56 C 71.10 58.59 142.15 58.40 213.19 58.66 C 217.77 69.13 222.93 79.33 227.69 89.72 C 233.84 102.36 239.73 115.13 245.76 127.82 C 245.35 112.39 249.17 96.69 257.77 83.77 C 268.46 67.21 286.34 55.59 305.76 52.30 C 329.66 47.91 355.65 55.60 372.47 73.35 C 378.62 67.89 385.62 63.31 393.33 60.36 C 402.78 56.61 413.00 55.09 423.14 55.38 C 456.64 55.32 490.14 55.40 523.64 55.34 M 528.18 58.93 C 530.81 65.15 533.92 71.17 536.73 77.32 C 553.66 112.86 570.26 148.57 587.35 184.02 C 598.66 184.45 610.02 184.17 621.35 184.15 C 612.74 165.64 603.88 147.24 595.21 128.76 C 578.41 93.55 562.04 58.13 545.00 23.04 C 539.38 34.99 533.37 46.80 528.18 58.93 M 298.48 59.70 C 282.70 64.40 268.81 75.15 260.42 89.33 C 246.36 112.54 247.73 144.08 264.07 165.81 C 276.21 182.42 296.42 192.63 316.96 192.86 C 331.69 193.38 346.57 189.05 358.60 180.51 C 371.13 171.72 380.35 158.46 384.43 143.73 C 369.37 143.70 354.31 143.68 339.26 143.74 C 329.82 154.20 312.27 155.44 301.43 146.46 C 291.73 138.93 288.53 124.65 293.53 113.54 C 297.66 103.59 308.22 96.91 318.95 97.20 C 326.35 97.05 333.54 100.26 338.80 105.38 C 353.98 105.35 369.16 105.41 384.34 105.34 C 379.70 89.79 369.59 75.84 355.75 67.24 C 338.97 56.52 317.47 53.98 298.48 59.70 M 376.11 77.34 C 379.15 81.41 382.04 85.59 384.44 90.08 C 385.07 91.47 385.70 92.86 386.33 94.25 C 388.86 99.82 390.55 105.73 391.59 111.75 C 386.48 111.78 381.37 111.76 376.26 111.78 C 374.80 111.76 373.35 111.76 371.90 111.75 C 366.84 111.78 361.78 111.79 356.71 111.75 C 354.87 120.15 355.07 128.85 356.59 137.28 C 361.70 137.35 366.80 137.26 371.90 137.34 C 373.34 137.35 374.78 137.35 376.23 137.34 C 381.34 137.28 386.44 137.34 391.55 137.29 C 390.65 143.49 388.63 149.44 386.27 155.22 C 385.61 156.54 384.94 157.85 384.28 159.17 C 382.01 163.62 379.13 167.72 376.11 171.70 C 384.19 178.91 393.98 184.26 404.57 186.68 C 421.77 190.87 440.67 187.35 455.23 177.27 C 467.01 169.32 475.83 157.26 480.19 143.76 C 467.52 143.67 454.86 143.72 442.20 143.73 C 439.41 146.83 436.16 149.55 432.37 151.34 C 419.59 157.81 402.54 153.49 394.65 141.46 C 385.95 129.23 388.50 110.73 400.34 101.44 C 412.37 91.17 432.21 93.08 442.17 105.33 C 454.84 105.38 467.52 105.40 480.20 105.32 C 476.52 94.10 469.87 83.84 460.89 76.15 C 449.13 65.95 433.53 60.34 417.97 60.69 C 402.58 60.90 387.55 67.11 376.11 77.34 M 10.95 64.92 C 12.57 69.45 14.92 73.67 16.91 78.05 C 39.92 126.72 62.98 175.37 85.96 224.06 C 86.15 224.63 87.23 226.64 87.62 224.99 C 92.64 214.51 97.54 203.97 102.56 193.50 C 103.19 191.95 104.56 190.25 103.33 188.64 C 84.13 148.15 65.01 107.62 45.82 67.13 C 45.27 65.98 44.69 64.43 43.05 64.85 C 32.35 64.86 21.65 64.76 10.95 64.92 M 51.93 64.93 C 70.44 104.73 89.43 144.30 108.13 184.01 C 114.79 170.55 121.02 156.88 127.51 143.33 C 134.15 156.82 140.29 170.55 146.95 184.03 C 165.65 144.32 184.69 104.76 203.14 64.94 C 189.78 64.82 176.41 65.00 163.05 64.85 C 157.46 76.14 152.24 87.63 146.95 99.07 C 141.54 87.70 136.35 76.21 130.84 64.89 C 104.54 64.94 78.23 64.86 51.93 64.93 M 207.12 70.30 C 189.25 108.27 171.16 146.13 153.36 184.13 C 166.26 184.19 179.17 184.16 192.08 184.15 C 192.50 184.08 193.33 183.93 193.75 183.86 C 199.21 172.71 204.33 161.38 209.64 150.16 C 214.64 160.55 219.48 171.03 224.35 181.49 C 224.96 182.61 225.35 184.52 227.08 184.14 C 240.05 184.16 253.02 184.18 265.99 184.12 C 247.34 144.42 228.52 104.80 209.74 65.16 C 208.80 66.84 207.92 68.55 207.12 70.30 M 522.75 68.71 C 504.62 107.20 486.29 145.60 468.24 184.12 C 481.18 184.20 494.12 184.15 507.06 184.16 C 508.71 184.66 509.13 182.84 509.71 181.79 C 514.55 171.36 519.52 160.97 524.32 150.52 C 526.39 153.08 527.32 156.31 528.81 159.21 C 532.79 167.52 536.52 175.97 540.66 184.21 C 554.03 184.08 567.40 184.19 580.77 184.15 C 580.32 183.00 579.84 181.86 579.35 180.73 C 561.07 142.22 542.93 103.66 524.62 65.17 C 523.97 66.33 523.33 67.51 522.75 68.71 M 485.31 99.87 C 488.85 100.14 487.55 103.73 488.06 106.13 C 488.67 104.38 488.62 102.52 488.60 100.70 C 489.29 100.60 490.66 100.40 491.34 100.31 C 491.35 102.23 491.34 104.16 491.61 106.08 C 491.92 104.67 492.22 103.25 492.50 101.83 C 493.10 103.13 493.63 104.46 494.17 105.79 C 494.97 104.46 495.76 103.11 496.58 101.78 C 496.65 103.21 496.77 104.64 496.95 106.06 C 497.72 103.85 497.54 101.46 496.99 99.22 C 495.83 100.54 495.37 102.24 494.86 103.87 C 493.60 102.80 493.16 101.16 492.14 99.92 C 489.87 99.70 487.58 99.81 485.31 99.87 M 403.65 112.41 C 403.72 117.01 403.67 121.62 403.72 126.23 C 407.10 126.22 410.48 126.22 413.87 126.24 C 413.89 123.78 413.89 121.32 413.90 118.86 C 417.53 118.85 421.16 118.85 424.79 118.85 C 422.35 124.82 419.95 130.80 417.42 136.72 C 420.86 136.76 424.30 136.76 427.75 136.72 C 431.37 128.62 434.88 120.47 438.52 112.38 C 426.90 112.32 415.27 112.27 403.65 112.41 M 468.33 112.32 C 468.06 112.80 467.52 113.76 467.25 114.24 C 463.77 114.21 460.30 114.23 456.83 114.22 C 456.82 116.37 456.81 118.52 456.81 120.67 C 459.44 120.70 462.07 120.71 464.70 120.68 C 462.61 126.07 460.26 131.36 458.10 136.72 C 461.53 136.75 464.97 136.76 468.41 136.71 C 470.86 131.41 472.95 125.94 475.65 120.76 C 476.50 120.74 478.22 120.69 479.07 120.66 C 476.79 126.03 474.48 131.38 472.17 136.73 C 475.63 136.74 479.09 136.77 482.55 136.69 C 485.90 129.14 489.47 121.70 492.87 114.18 C 488.12 114.21 483.37 114.17 478.62 114.25 C 478.69 113.76 478.84 112.77 478.91 112.28 C 475.38 112.36 471.85 112.34 468.33 112.32 M 436.30 121.34 C 436.31 124.19 436.31 127.03 436.32 129.88 C 438.29 129.87 440.27 129.87 442.25 129.85 C 442.24 127.02 442.24 124.19 442.27 121.36 C 440.27 121.35 438.29 121.34 436.30 121.34 M 443.06 121.38 C 443.15 124.25 443.14 127.12 443.21 129.99 C 445.38 130.08 447.55 130.00 448.87 128.04 C 448.83 125.81 448.85 123.58 448.90 121.35 C 446.94 121.34 445.00 121.35 443.06 121.38 M 452.01 122.77 C 449.97 127.46 447.98 132.16 445.59 136.68 C 448.63 136.75 451.67 136.76 454.72 136.71 C 456.79 132.06 458.99 127.47 461.01 122.80 C 458.01 122.78 455.01 122.77 452.01 122.77 Z" />
</g>
<g id="#e60065ff">
<path fill="#e60065" opacity="1.00" d=" M 267.95 10.90 C 296.03 -1.68 328.75 -3.25 358.02 6.11 C 384.52 14.48 407.81 32.23 423.14 55.38 C 413.00 55.09 402.78 56.61 393.33 60.36 C 377.63 42.62 355.74 30.25 332.15 27.17 C 310.25 24.15 287.38 29.03 268.59 40.66 C 250.14 51.98 235.22 69.37 227.69 89.72 C 222.93 79.33 217.77 69.13 213.19 58.66 C 226.21 37.80 245.39 20.79 267.95 10.90 Z" />
<path fill="#e60065" opacity="1.00" d=" M 10.95 64.92 C 21.65 64.76 32.35 64.86 43.05 64.85 C 44.69 64.43 45.27 65.98 45.82 67.13 C 65.01 107.62 84.13 148.15 103.33 188.64 C 104.56 190.25 103.19 191.95 102.56 193.50 C 97.54 203.97 92.64 214.51 87.62 224.99 C 87.23 226.64 86.15 224.63 85.96 224.06 C 62.98 175.37 39.92 126.72 16.91 78.05 C 14.92 73.67 12.57 69.45 10.95 64.92 Z" />
</g>
<g id="#00a1eaff">
<path fill="#00a1ea" opacity="1.00" d=" M 528.18 58.93 C 533.37 46.80 539.38 34.99 545.00 23.04 C 562.04 58.13 578.41 93.55 595.21 128.76 C 603.88 147.24 612.74 165.64 621.35 184.15 C 610.02 184.17 598.66 184.45 587.35 184.02 C 570.26 148.57 553.66 112.86 536.73 77.32 C 533.92 71.17 530.81 65.15 528.18 58.93 Z" />
<path fill="#00a1ea" opacity="1.00" d=" M 384.44 90.08 C 394.08 80.28 407.93 74.77 421.68 75.60 C 434.00 76.07 445.84 81.65 454.46 90.40 C 452.44 90.46 450.43 90.52 448.42 90.57 C 442.22 85.44 434.75 81.83 426.78 80.54 C 412.12 77.83 396.40 83.31 386.33 94.25 C 385.70 92.86 385.07 91.47 384.44 90.08 Z" />
<path fill="#00a1ea" opacity="1.00" d=" M 371.90 111.75 C 373.35 111.76 374.80 111.76 376.26 111.78 C 374.51 120.16 374.57 128.95 376.23 137.34 C 374.78 137.35 373.34 137.35 371.90 137.34 C 369.74 128.98 369.72 120.11 371.90 111.75 Z" />
<path fill="#00a1ea" opacity="1.00" d=" M 384.28 159.17 C 384.94 157.85 385.61 156.54 386.27 155.22 C 391.26 159.62 396.58 163.84 402.90 166.16 C 409.91 169.08 417.69 169.26 425.16 168.70 C 433.80 167.91 441.80 163.84 448.51 158.49 C 450.51 158.50 452.52 158.51 454.53 158.55 C 444.28 169.31 428.96 174.91 414.20 173.34 C 402.93 172.22 392.49 166.84 384.28 159.17 Z" />
</g>
<g id="#000000ff">
<path fill="#000000" opacity="1.00" d=" M 298.48 59.70 C 317.47 53.98 338.97 56.52 355.75 67.24 C 369.59 75.84 379.70 89.79 384.34 105.34 C 369.16 105.41 353.98 105.35 338.80 105.38 C 333.54 100.26 326.35 97.05 318.95 97.20 C 308.22 96.91 297.66 103.59 293.53 113.54 C 288.53 124.65 291.73 138.93 301.43 146.46 C 312.27 155.44 329.82 154.20 339.26 143.74 C 354.31 143.68 369.37 143.70 384.43 143.73 C 380.35 158.46 371.13 171.72 358.60 180.51 C 346.57 189.05 331.69 193.38 316.96 192.86 C 296.42 192.63 276.21 182.42 264.07 165.81 C 247.73 144.08 246.36 112.54 260.42 89.33 C 268.81 75.15 282.70 64.40 298.48 59.70 M 282.38 86.46 C 272.27 96.14 266.01 109.95 266.11 124.01 C 265.74 138.43 272.01 152.72 282.40 162.65 C 292.52 172.59 306.77 178.32 320.99 177.70 C 335.99 177.44 350.31 169.90 359.99 158.61 C 358.21 158.55 356.42 158.50 354.64 158.44 C 347.69 165.19 339.09 170.44 329.52 172.36 C 316.48 175.36 302.34 172.34 291.40 164.73 C 278.56 155.86 270.32 140.63 270.33 124.98 C 270.11 111.70 275.74 98.48 285.37 89.36 C 295.67 79.22 310.69 74.14 325.04 75.98 C 336.16 77.19 346.58 82.65 354.42 90.54 C 356.26 90.52 358.11 90.48 359.95 90.42 C 350.23 79.18 335.94 71.60 320.94 71.40 C 306.73 70.76 292.47 76.50 282.38 86.46 Z" />
<path fill="#000000" opacity="1.00" d=" M 376.11 77.34 C 387.55 67.11 402.58 60.90 417.97 60.69 C 433.53 60.34 449.13 65.95 460.89 76.15 C 469.87 83.84 476.52 94.10 480.20 105.32 C 467.52 105.40 454.84 105.38 442.17 105.33 C 432.21 93.08 412.37 91.17 400.34 101.44 C 388.50 110.73 385.95 129.23 394.65 141.46 C 402.54 153.49 419.59 157.81 432.37 151.34 C 436.16 149.55 439.41 146.83 442.20 143.73 C 454.86 143.72 467.52 143.67 480.19 143.76 C 475.83 157.26 467.01 169.32 455.23 177.27 C 440.67 187.35 421.77 190.87 404.57 186.68 C 393.98 184.26 384.19 178.91 376.11 171.70 C 379.13 167.72 382.01 163.62 384.28 159.17 C 392.49 166.84 402.93 172.22 414.20 173.34 C 428.96 174.91 444.28 169.31 454.53 158.55 C 452.52 158.51 450.51 158.50 448.51 158.49 C 441.80 163.84 433.80 167.91 425.16 168.70 C 417.69 169.26 409.91 169.08 402.90 166.16 C 396.58 163.84 391.26 159.62 386.27 155.22 C 388.63 149.44 390.65 143.49 391.55 137.29 C 386.44 137.34 381.34 137.28 376.23 137.34 C 374.57 128.95 374.51 120.16 376.26 111.78 C 381.37 111.76 386.48 111.78 391.59 111.75 C 390.55 105.73 388.86 99.82 386.33 94.25 C 396.40 83.31 412.12 77.83 426.78 80.54 C 434.75 81.83 442.22 85.44 448.42 90.57 C 450.43 90.52 452.44 90.46 454.46 90.40 C 445.84 81.65 434.00 76.07 421.68 75.60 C 407.93 74.77 394.08 80.28 384.44 90.08 C 382.04 85.59 379.15 81.41 376.11 77.34 Z" />
<path fill="#000000" opacity="1.00" d=" M 51.93 64.93 C 78.23 64.86 104.54 64.94 130.84 64.89 C 136.35 76.21 141.54 87.70 146.95 99.07 C 152.24 87.63 157.46 76.14 163.05 64.85 C 176.41 65.00 189.78 64.82 203.14 64.94 C 184.69 104.76 165.65 144.32 146.95 184.03 C 140.29 170.55 134.15 156.82 127.51 143.33 C 121.02 156.88 114.79 170.55 108.13 184.01 C 89.43 144.30 70.44 104.73 51.93 64.93 Z" />
<path fill="#000000" opacity="1.00" d=" M 207.12 70.30 C 207.92 68.55 208.80 66.84 209.74 65.16 C 228.52 104.80 247.34 144.42 265.99 184.12 C 253.02 184.18 240.05 184.16 227.08 184.14 C 225.35 184.52 224.96 182.61 224.35 181.49 C 219.48 171.03 214.64 160.55 209.64 150.16 C 204.33 161.38 199.21 172.71 193.75 183.86 C 193.33 183.93 192.50 184.08 192.08 184.15 C 179.17 184.16 166.26 184.19 153.36 184.13 C 171.16 146.13 189.25 108.27 207.12 70.30 Z" />
<path fill="#000000" opacity="1.00" d=" M 522.75 68.71 C 523.33 67.51 523.97 66.33 524.62 65.17 C 542.93 103.66 561.07 142.22 579.35 180.73 C 579.84 181.86 580.32 183.00 580.77 184.15 C 567.40 184.19 554.03 184.08 540.66 184.21 C 536.52 175.97 532.79 167.52 528.81 159.21 C 527.32 156.31 526.39 153.08 524.32 150.52 C 519.52 160.97 514.55 171.36 509.71 181.79 C 509.13 182.84 508.71 184.66 507.06 184.16 C 494.12 184.15 481.18 184.20 468.24 184.12 C 486.29 145.60 504.62 107.20 522.75 68.71 Z" />
<path fill="#000000" opacity="1.00" d=" M 485.31 99.87 C 487.58 99.81 489.87 99.70 492.14 99.92 C 493.16 101.16 493.60 102.80 494.86 103.87 C 495.37 102.24 495.83 100.54 496.99 99.22 C 497.54 101.46 497.72 103.85 496.95 106.06 C 496.77 104.64 496.65 103.21 496.58 101.78 C 495.76 103.11 494.97 104.46 494.17 105.79 C 493.63 104.46 493.10 103.13 492.50 101.83 C 492.22 103.25 491.92 104.67 491.61 106.08 C 491.34 104.16 491.35 102.23 491.34 100.31 C 490.66 100.40 489.29 100.60 488.60 100.70 C 488.62 102.52 488.67 104.38 488.06 106.13 C 487.55 103.73 488.85 100.14 485.31 99.87 Z" />
<path fill="#000000" opacity="1.00" d=" M 356.59 137.28 C 355.07 128.85 354.87 120.15 356.71 111.75 C 361.78 111.79 366.84 111.78 371.90 111.75 C 369.72 120.11 369.74 128.98 371.90 137.34 C 366.80 137.26 361.70 137.35 356.59 137.28 Z" />
<path fill="#000000" opacity="1.00" d=" M 403.65 112.41 C 415.27 112.27 426.90 112.32 438.52 112.38 C 434.88 120.47 431.37 128.62 427.75 136.72 C 424.30 136.76 420.86 136.76 417.42 136.72 C 419.95 130.80 422.35 124.82 424.79 118.85 C 421.16 118.85 417.53 118.85 413.90 118.86 C 413.89 121.32 413.89 123.78 413.87 126.24 C 410.48 126.22 407.10 126.22 403.72 126.23 C 403.67 121.62 403.72 117.01 403.65 112.41 Z" />
<path fill="#000000" opacity="1.00" d=" M 468.33 112.32 C 471.85 112.34 475.38 112.36 478.91 112.28 C 478.84 112.77 478.69 113.76 478.62 114.25 C 483.37 114.17 488.12 114.21 492.87 114.18 C 489.47 121.70 485.90 129.14 482.55 136.69 C 479.09 136.77 475.63 136.74 472.17 136.73 C 474.48 131.38 476.79 126.03 479.07 120.66 C 478.22 120.69 476.50 120.74 475.65 120.76 C 472.95 125.94 470.86 131.41 468.41 136.71 C 464.97 136.76 461.53 136.75 458.10 136.72 C 460.26 131.36 462.61 126.07 464.70 120.68 C 462.07 120.71 459.44 120.70 456.81 120.67 C 456.81 118.52 456.82 116.37 456.83 114.22 C 460.30 114.23 463.77 114.21 467.25 114.24 C 467.52 113.76 468.06 112.80 468.33 112.32 Z" />
<path fill="#000000" opacity="1.00" d=" M 436.30 121.34 C 438.29 121.34 440.27 121.35 442.27 121.36 C 442.24 124.19 442.24 127.02 442.25 129.85 C 440.27 129.87 438.29 129.87 436.32 129.88 C 436.31 127.03 436.31 124.19 436.30 121.34 Z" />
<path fill="#000000" opacity="1.00" d=" M 443.06 121.38 C 445.00 121.35 446.94 121.34 448.90 121.35 C 448.85 123.58 448.83 125.81 448.87 128.04 C 447.55 130.00 445.38 130.08 443.21 129.99 C 443.14 127.12 443.15 124.25 443.06 121.38 Z" />
<path fill="#000000" opacity="1.00" d=" M 452.01 122.77 C 455.01 122.77 458.01 122.78 461.01 122.80 C 458.99 127.47 456.79 132.06 454.72 136.71 C 451.67 136.76 448.63 136.75 445.59 136.68 C 447.98 132.16 449.97 127.46 452.01 122.77 Z" />
</g>
<g id="#fed000ff">
<path fill="#fed000" opacity="1.00" d=" M 282.38 86.46 C 292.47 76.50 306.73 70.76 320.94 71.40 C 335.94 71.60 350.23 79.18 359.95 90.42 C 358.11 90.48 356.26 90.52 354.42 90.54 C 346.58 82.65 336.16 77.19 325.04 75.98 C 310.69 74.14 295.67 79.22 285.37 89.36 C 275.74 98.48 270.11 111.70 270.33 124.98 C 270.32 140.63 278.56 155.86 291.40 164.73 C 302.34 172.34 316.48 175.36 329.52 172.36 C 339.09 170.44 347.69 165.19 354.64 158.44 C 356.42 158.50 358.21 158.55 359.99 158.61 C 350.31 169.90 335.99 177.44 320.99 177.70 C 306.77 178.32 292.52 172.59 282.40 162.65 C 272.01 152.72 265.74 138.43 266.11 124.01 C 266.01 109.95 272.27 96.14 282.38 86.46 Z" />
<path fill="#fed000" opacity="1.00" d=" M 213.39 190.50 C 224.59 190.39 235.79 190.36 246.99 190.51 C 263.10 208.50 286.14 220.11 310.19 222.37 C 340.39 225.44 371.36 212.94 391.62 190.48 C 402.79 190.39 413.96 190.36 425.13 190.51 C 412.39 211.25 393.29 228.01 371.07 237.98 C 346.26 249.24 317.75 251.76 291.20 245.91 C 259.23 238.89 230.39 218.51 213.39 190.50 Z" />
</g>
</svg>
